<svg width="1440" height="250" viewBox="0 0 1440 250" fill="none" xmlns="http://www.w3.org/2000/svg">
<rect width="1440" height="250" fill="#3A3054"/>
<mask id="mask0_0_947" style="mask-type:alpha" maskUnits="userSpaceOnUse" x="0" y="0" width="1440" height="250">
<rect width="1440" height="250" fill="white"/>
</mask>
<g mask="url(#mask0_0_947)">
<path fill-rule="evenodd" clip-rule="evenodd" d="M830 -63.4815C830 19.3514 854.361 78.6789 944.732 117C1035.1 155.321 1122.42 120.352 1210.01 140.4C1297.6 160.448 1297.6 289.595 1380.09 369.071C1462.57 448.547 1636.49 467.852 1777.91 387.221C1919.32 306.589 1983.43 118.325 1941.17 7.31897C1898.92 -103.687 1817.94 -205 1427.24 -205C1036.53 -205 830 -146.314 830 -63.4815Z" fill="#4B3F6B"/>
<path fill-rule="evenodd" clip-rule="evenodd" d="M-263.351 570.909C-233.666 648.24 -189.662 694.897 -91.5605 698.286C6.54131 701.676 75.5245 637.739 164.482 625.066C253.44 612.392 299.722 732.961 405.211 777.598C510.7 822.236 679.987 777.931 783.113 651.976C886.239 526.021 878.619 327.289 799.391 238.798C720.162 150.307 608.257 84.7429 243.501 224.76C-121.256 364.777 -293.036 493.578 -263.351 570.909Z" fill="#4B3F6B"/>
<path fill-rule="evenodd" clip-rule="evenodd" d="M-514 -377.482C-514 -294.649 -489.639 -235.321 -399.268 -197C-308.897 -158.679 -221.582 -193.648 -133.991 -173.6C-46.4005 -153.552 -46.4006 -24.4053 36.0855 55.071C118.572 134.547 292.491 153.852 433.906 73.2205C575.321 -7.41135 639.427 -195.675 597.173 -306.681C554.919 -417.687 473.943 -519 83.2357 -519C-307.471 -519 -514 -460.314 -514 -377.482Z" fill="#4B3F6B"/>
</g>
<path d="M523.16 80.44C524.867 80.84 526.213 81.6667 527.2 82.92C528.213 84.1733 528.72 85.6267 528.72 87.28C528.72 89.7067 527.907 91.6 526.28 92.96C524.68 94.32 522.373 95 519.36 95H506.2V66.72H519.04C521.92 66.72 524.147 67.3467 525.72 68.6C527.293 69.8533 528.08 71.64 528.08 73.96C528.08 75.6667 527.627 77.0933 526.72 78.24C525.813 79.36 524.627 80.0933 523.16 80.44ZM513.04 78.28H517.52C519.893 78.28 521.08 77.2667 521.08 75.24C521.08 73.2133 519.867 72.2 517.44 72.2H513.04V78.28ZM517.92 89.44C520.453 89.44 521.72 88.4 521.72 86.32C521.72 85.3067 521.387 84.52 520.72 83.96C520.053 83.3733 519.107 83.08 517.88 83.08H513.04V89.44H517.92ZM541.773 72.4C543.986 72.4 545.959 72.8667 547.693 73.8C549.453 74.7067 550.826 76.0267 551.813 77.76C552.826 79.4933 553.333 81.52 553.333 83.84C553.333 86.16 552.826 88.1867 551.813 89.92C550.826 91.6533 549.453 92.9867 547.693 93.92C545.959 94.8267 543.986 95.28 541.773 95.28C539.559 95.28 537.573 94.8267 535.813 93.92C534.053 92.9867 532.666 91.6533 531.653 89.92C530.666 88.1867 530.173 86.16 530.173 83.84C530.173 81.52 530.666 79.4933 531.653 77.76C532.666 76.0267 534.053 74.7067 535.813 73.8C537.573 72.8667 539.559 72.4 541.773 72.4ZM541.773 78.32C540.466 78.32 539.359 78.8 538.453 79.76C537.573 80.6933 537.133 82.0533 537.133 83.84C537.133 85.6267 537.573 86.9867 538.453 87.92C539.359 88.8533 540.466 89.32 541.773 89.32C543.079 89.32 544.173 88.8533 545.053 87.92C545.933 86.9867 546.373 85.6267 546.373 83.84C546.373 82.0533 545.933 80.6933 545.053 79.76C544.173 78.8 543.079 78.32 541.773 78.32ZM566.32 72.4C568.533 72.4 570.506 72.8667 572.24 73.8C574 74.7067 575.373 76.0267 576.36 77.76C577.373 79.4933 577.88 81.52 577.88 83.84C577.88 86.16 577.373 88.1867 576.36 89.92C575.373 91.6533 574 92.9867 572.24 93.92C570.506 94.8267 568.533 95.28 566.32 95.28C564.106 95.28 562.12 94.8267 560.36 93.92C558.6 92.9867 557.213 91.6533 556.2 89.92C555.213 88.1867 554.72 86.16 554.72 83.84C554.72 81.52 555.213 79.4933 556.2 77.76C557.213 76.0267 558.6 74.7067 560.36 73.8C562.12 72.8667 564.106 72.4 566.32 72.4ZM566.32 78.32C565.013 78.32 563.906 78.8 563 79.76C562.12 80.6933 561.68 82.0533 561.68 83.84C561.68 85.6267 562.12 86.9867 563 87.92C563.906 88.8533 565.013 89.32 566.32 89.32C567.626 89.32 568.72 88.8533 569.6 87.92C570.48 86.9867 570.92 85.6267 570.92 83.84C570.92 82.0533 570.48 80.6933 569.6 79.76C568.72 78.8 567.626 78.32 566.32 78.32ZM588.546 72.4C591.373 72.4 593.626 73.1067 595.306 74.52C597.013 75.9333 598.08 77.8 598.506 80.12H592.106C591.92 79.2133 591.493 78.5067 590.826 78C590.186 77.4667 589.373 77.2 588.386 77.2C587.613 77.2 587.026 77.3733 586.626 77.72C586.226 78.04 586.026 78.5067 586.026 79.12C586.026 79.8133 586.386 80.3333 587.106 80.68C587.853 81.0267 589.013 81.3733 590.586 81.72C592.293 82.12 593.693 82.5333 594.786 82.96C595.88 83.36 596.826 84.0267 597.626 84.96C598.426 85.8933 598.826 87.1467 598.826 88.72C598.826 90 598.48 91.1333 597.786 92.12C597.093 93.1067 596.093 93.88 594.786 94.44C593.48 95 591.933 95.28 590.146 95.28C587.133 95.28 584.72 94.6133 582.906 93.28C581.093 91.9467 579.986 90.04 579.586 87.56H586.186C586.293 88.52 586.693 89.2533 587.386 89.76C588.106 90.2667 589.026 90.52 590.146 90.52C590.92 90.52 591.506 90.3467 591.906 90C592.306 89.6267 592.506 89.1467 592.506 88.56C592.506 87.7867 592.133 87.24 591.386 86.92C590.666 86.5733 589.48 86.2133 587.826 85.84C586.173 85.4933 584.813 85.12 583.746 84.72C582.68 84.32 581.76 83.68 580.986 82.8C580.213 81.8933 579.826 80.6667 579.826 79.12C579.826 77.12 580.586 75.5067 582.106 74.28C583.626 73.0267 585.773 72.4 588.546 72.4ZM614.254 89.12V95H611.174C608.561 95 606.521 94.36 605.054 93.08C603.614 91.7733 602.894 89.6267 602.894 86.64V78.44H599.894V72.68H602.894V67.2H609.734V72.68H614.214V78.44H609.734V86.76C609.734 87.64 609.907 88.2533 610.254 88.6C610.627 88.9467 611.241 89.12 612.094 89.12H614.254ZM629.266 72.68L634.626 86.36L639.626 72.68H647.186L633.266 105.64H625.746L630.986 94.16L621.626 72.68H629.266ZM658.898 72.4C661.111 72.4 663.084 72.8667 664.818 73.8C666.578 74.7067 667.951 76.0267 668.938 77.76C669.951 79.4933 670.458 81.52 670.458 83.84C670.458 86.16 669.951 88.1867 668.938 89.92C667.951 91.6533 666.578 92.9867 664.818 93.92C663.084 94.8267 661.111 95.28 658.898 95.28C656.684 95.28 654.698 94.8267 652.938 93.92C651.178 92.9867 649.791 91.6533 648.778 89.92C647.791 88.1867 647.298 86.16 647.298 83.84C647.298 81.52 647.791 79.4933 648.778 77.76C649.791 76.0267 651.178 74.7067 652.938 73.8C654.698 72.8667 656.684 72.4 658.898 72.4ZM658.898 78.32C657.591 78.32 656.484 78.8 655.578 79.76C654.698 80.6933 654.258 82.0533 654.258 83.84C654.258 85.6267 654.698 86.9867 655.578 87.92C656.484 88.8533 657.591 89.32 658.898 89.32C660.204 89.32 661.298 88.8533 662.178 87.92C663.058 86.9867 663.498 85.6267 663.498 83.84C663.498 82.0533 663.058 80.6933 662.178 79.76C661.298 78.8 660.204 78.32 658.898 78.32ZM695.205 72.68V95H688.325V90.96C687.685 92.2667 686.725 93.3067 685.445 94.08C684.191 94.8533 682.725 95.24 681.045 95.24C678.485 95.24 676.445 94.3867 674.925 92.68C673.431 90.9733 672.685 88.6267 672.685 85.64V72.68H679.485V84.8C679.485 86.32 679.871 87.5067 680.645 88.36C681.445 89.1867 682.511 89.6 683.845 89.6C685.231 89.6 686.325 89.16 687.125 88.28C687.925 87.4 688.325 86.1467 688.325 84.52V72.68H695.205ZM705.759 76.88C706.612 75.52 707.705 74.44 709.039 73.64C710.399 72.84 711.865 72.44 713.439 72.44V79.76H711.479C709.665 79.76 708.252 80.1467 707.239 80.92C706.252 81.6933 705.759 83 705.759 84.84V95H698.919V72.68H705.759V76.88ZM729.149 65.4V95H722.309V65.4H729.149ZM732.232 66.4C732.232 65.36 732.605 64.5067 733.352 63.84C734.098 63.1467 735.085 62.8 736.312 62.8C737.538 62.8 738.525 63.1467 739.272 63.84C740.018 64.5067 740.392 65.36 740.392 66.4C740.392 67.4133 740.018 68.2667 739.272 68.96C738.525 69.6267 737.538 69.96 736.312 69.96C735.085 69.96 734.098 69.6267 733.352 68.96C732.605 68.2667 732.232 67.4133 732.232 66.4ZM739.712 72.68V95H732.872V72.68H739.712ZM757.594 72.44C760.154 72.44 762.181 73.2933 763.674 75C765.194 76.7067 765.954 79.0533 765.954 82.04V95H759.114V82.84C759.114 81.3467 758.714 80.1867 757.914 79.36C757.141 78.5067 756.101 78.08 754.794 78.08C753.408 78.08 752.301 78.52 751.474 79.4C750.674 80.28 750.274 81.5333 750.274 83.16V95H743.434V72.68H750.274V76.76C750.914 75.4267 751.861 74.3733 753.114 73.6C754.394 72.8267 755.888 72.44 757.594 72.44ZM782.985 95L776.305 85.52V95H769.465V65.4H776.305V81.64L782.985 72.68H791.025L782.025 83.84L791.225 95H782.985ZM800.843 72.4C803.67 72.4 805.923 73.1067 807.603 74.52C809.31 75.9333 810.377 77.8 810.803 80.12H804.403C804.217 79.2133 803.79 78.5067 803.123 78C802.483 77.4667 801.67 77.2 800.683 77.2C799.91 77.2 799.323 77.3733 798.923 77.72C798.523 78.04 798.323 78.5067 798.323 79.12C798.323 79.8133 798.683 80.3333 799.403 80.68C800.15 81.0267 801.31 81.3733 802.883 81.72C804.59 82.12 805.99 82.5333 807.083 82.96C808.177 83.36 809.123 84.0267 809.923 84.96C810.723 85.8933 811.123 87.1467 811.123 88.72C811.123 90 810.777 91.1333 810.083 92.12C809.39 93.1067 808.39 93.88 807.083 94.44C805.777 95 804.23 95.28 802.443 95.28C799.43 95.28 797.017 94.6133 795.203 93.28C793.39 91.9467 792.283 90.04 791.883 87.56H798.483C798.59 88.52 798.99 89.2533 799.683 89.76C800.403 90.2667 801.323 90.52 802.443 90.52C803.217 90.52 803.803 90.3467 804.203 90C804.603 89.6267 804.803 89.1467 804.803 88.56C804.803 87.7867 804.43 87.24 803.683 86.92C802.963 86.5733 801.777 86.2133 800.123 85.84C798.47 85.4933 797.11 85.12 796.043 84.72C794.977 84.32 794.057 83.68 793.283 82.8C792.51 81.8933 792.123 80.6667 792.123 79.12C792.123 77.12 792.883 75.5067 794.403 74.28C795.923 73.0267 798.07 72.4 800.843 72.4ZM833.559 89.12V95H830.479C827.865 95 825.825 94.36 824.359 93.08C822.919 91.7733 822.199 89.6267 822.199 86.64V78.44H819.199V72.68H822.199V67.2H829.039V72.68H833.519V78.44H829.039V86.76C829.039 87.64 829.212 88.2533 829.559 88.6C829.932 88.9467 830.545 89.12 831.399 89.12H833.559ZM846.843 72.4C849.056 72.4 851.03 72.8667 852.763 73.8C854.523 74.7067 855.896 76.0267 856.883 77.76C857.896 79.4933 858.403 81.52 858.403 83.84C858.403 86.16 857.896 88.1867 856.883 89.92C855.896 91.6533 854.523 92.9867 852.763 93.92C851.03 94.8267 849.056 95.28 846.843 95.28C844.63 95.28 842.643 94.8267 840.883 93.92C839.123 92.9867 837.736 91.6533 836.723 89.92C835.736 88.1867 835.243 86.16 835.243 83.84C835.243 81.52 835.736 79.4933 836.723 77.76C837.736 76.0267 839.123 74.7067 840.883 73.8C842.643 72.8667 844.63 72.4 846.843 72.4ZM846.843 78.32C845.536 78.32 844.43 78.8 843.523 79.76C842.643 80.6933 842.203 82.0533 842.203 83.84C842.203 85.6267 842.643 86.9867 843.523 87.92C844.43 88.8533 845.536 89.32 846.843 89.32C848.15 89.32 849.243 88.8533 850.123 87.92C851.003 86.9867 851.443 85.6267 851.443 83.84C851.443 82.0533 851.003 80.6933 850.123 79.76C849.243 78.8 848.15 78.32 846.843 78.32ZM869.43 72.4C871.137 72.4 872.603 72.7867 873.83 73.56C875.057 74.3333 875.95 75.3867 876.51 76.72V65.4H883.35V95H876.51V90.96C875.95 92.2933 875.057 93.3467 873.83 94.12C872.603 94.8933 871.137 95.28 869.43 95.28C867.59 95.28 865.937 94.8267 864.47 93.92C863.03 92.9867 861.883 91.6533 861.03 89.92C860.203 88.1867 859.79 86.16 859.79 83.84C859.79 81.4933 860.203 79.4667 861.03 77.76C861.883 76.0267 863.03 74.7067 864.47 73.8C865.937 72.8667 867.59 72.4 869.43 72.4ZM871.63 78.4C870.163 78.4 868.977 78.88 868.07 79.84C867.19 80.8 866.75 82.1333 866.75 83.84C866.75 85.5467 867.19 86.88 868.07 87.84C868.977 88.8 870.163 89.28 871.63 89.28C873.07 89.28 874.243 88.7867 875.15 87.8C876.083 86.8133 876.55 85.4933 876.55 83.84C876.55 82.16 876.083 80.84 875.15 79.88C874.243 78.8933 873.07 78.4 871.63 78.4ZM895.539 72.4C897.246 72.4 898.713 72.7867 899.939 73.56C901.166 74.3333 902.073 75.3867 902.659 76.72V72.68H909.459V95H902.659V90.96C902.073 92.2933 901.166 93.3467 899.939 94.12C898.713 94.8933 897.246 95.28 895.539 95.28C893.699 95.28 892.046 94.8267 890.579 93.92C889.139 92.9867 887.993 91.6533 887.139 89.92C886.313 88.1867 885.899 86.16 885.899 83.84C885.899 81.4933 886.313 79.4667 887.139 77.76C887.993 76.0267 889.139 74.7067 890.579 73.8C892.046 72.8667 893.699 72.4 895.539 72.4ZM897.739 78.4C896.273 78.4 895.086 78.88 894.179 79.84C893.299 80.8 892.859 82.1333 892.859 83.84C892.859 85.5467 893.299 86.88 894.179 87.84C895.086 88.8 896.273 89.28 897.739 89.28C899.179 89.28 900.353 88.7867 901.259 87.8C902.193 86.8133 902.659 85.4933 902.659 83.84C902.659 82.16 902.193 80.84 901.259 79.88C900.353 78.8933 899.179 78.4 897.739 78.4ZM918.329 72.68L923.689 86.36L928.689 72.68H936.249L922.329 105.64H914.809L920.049 94.16L910.689 72.68H918.329Z" fill="white"/>
<rect x="622" y="137" width="197" height="56" rx="28" fill="#2BD0D0"/>
<path d="M669.8 158.72C671.573 158.72 673.033 159.153 674.18 160.02C675.327 160.887 676.04 162.06 676.32 163.54H672.7C672.46 163.033 672.093 162.633 671.6 162.34C671.107 162.033 670.513 161.88 669.82 161.88C668.74 161.88 667.873 162.247 667.22 162.98C666.567 163.7 666.24 164.68 666.24 165.92C666.24 167.267 666.58 168.3 667.26 169.02C667.953 169.74 668.933 170.1 670.2 170.1C671.013 170.1 671.727 169.88 672.34 169.44C672.953 168.987 673.387 168.347 673.64 167.52H669.32V165.06H676.5V168.44C676.233 169.267 675.807 170.033 675.22 170.74C674.633 171.447 673.88 172.02 672.96 172.46C672.053 172.9 671.013 173.12 669.84 173.12C668.413 173.12 667.167 172.82 666.1 172.22C665.033 171.607 664.207 170.753 663.62 169.66C663.047 168.567 662.76 167.32 662.76 165.92C662.76 164.52 663.047 163.273 663.62 162.18C664.207 161.087 665.027 160.24 666.08 159.64C667.147 159.027 668.387 158.72 669.8 158.72ZM689.014 167.12C689.014 167.4 688.981 167.707 688.914 168.04H681.174C681.214 168.88 681.428 169.487 681.814 169.86C682.201 170.22 682.694 170.4 683.294 170.4C683.801 170.4 684.221 170.273 684.554 170.02C684.888 169.767 685.108 169.44 685.214 169.04H688.834C688.688 169.827 688.368 170.533 687.874 171.16C687.381 171.773 686.754 172.26 685.994 172.62C685.234 172.967 684.388 173.14 683.454 173.14C682.361 173.14 681.388 172.913 680.534 172.46C679.694 171.993 679.034 171.327 678.554 170.46C678.074 169.593 677.834 168.58 677.834 167.42C677.834 166.247 678.068 165.233 678.534 164.38C679.014 163.513 679.681 162.853 680.534 162.4C681.388 161.933 682.361 161.7 683.454 161.7C684.561 161.7 685.534 161.927 686.374 162.38C687.214 162.833 687.861 163.473 688.314 164.3C688.781 165.113 689.014 166.053 689.014 167.12ZM685.554 166.6C685.568 165.867 685.368 165.32 684.954 164.96C684.554 164.587 684.054 164.4 683.454 164.4C682.828 164.4 682.308 164.587 681.894 164.96C681.481 165.333 681.248 165.88 681.194 166.6H685.554ZM697.117 170.06V173H695.577C694.271 173 693.251 172.68 692.517 172.04C691.797 171.387 691.437 170.313 691.437 168.82V164.72H689.937V161.84H691.437V159.1H694.857V161.84H697.097V164.72H694.857V168.88C694.857 169.32 694.944 169.627 695.117 169.8C695.304 169.973 695.611 170.06 696.037 170.06H697.117ZM713.203 169.02C713.203 169.767 713.01 170.453 712.623 171.08C712.25 171.707 711.69 172.207 710.943 172.58C710.21 172.953 709.317 173.14 708.263 173.14C706.677 173.14 705.37 172.753 704.343 171.98C703.317 171.207 702.757 170.127 702.663 168.74H706.303C706.357 169.273 706.543 169.693 706.863 170C707.197 170.307 707.617 170.46 708.123 170.46C708.563 170.46 708.91 170.34 709.163 170.1C709.417 169.86 709.543 169.54 709.543 169.14C709.543 168.78 709.423 168.48 709.183 168.24C708.957 168 708.67 167.807 708.323 167.66C707.977 167.5 707.497 167.313 706.883 167.1C705.99 166.793 705.257 166.5 704.683 166.22C704.123 165.927 703.637 165.5 703.223 164.94C702.823 164.367 702.623 163.627 702.623 162.72C702.623 161.88 702.837 161.153 703.263 160.54C703.69 159.927 704.277 159.46 705.023 159.14C705.783 158.807 706.65 158.64 707.623 158.64C709.197 158.64 710.443 159.013 711.363 159.76C712.297 160.507 712.823 161.533 712.943 162.84H709.243C709.177 162.373 709.003 162.007 708.723 161.74C708.457 161.46 708.09 161.32 707.623 161.32C707.223 161.32 706.897 161.427 706.643 161.64C706.403 161.853 706.283 162.167 706.283 162.58C706.283 162.913 706.39 163.2 706.603 163.44C706.83 163.667 707.11 163.853 707.443 164C707.777 164.147 708.257 164.333 708.883 164.56C709.79 164.867 710.53 165.173 711.103 165.48C711.677 165.773 712.17 166.207 712.583 166.78C712.997 167.353 713.203 168.1 713.203 169.02ZM721.414 170.06V173H719.874C718.567 173 717.547 172.68 716.814 172.04C716.094 171.387 715.734 170.313 715.734 168.82V164.72H714.234V161.84H715.734V159.1H719.154V161.84H721.394V164.72H719.154V168.88C719.154 169.32 719.241 169.627 719.414 169.8C719.601 169.973 719.907 170.06 720.334 170.06H721.414ZM727.576 161.7C728.43 161.7 729.163 161.893 729.776 162.28C730.39 162.667 730.843 163.193 731.136 163.86V161.84H734.536V173H731.136V170.98C730.843 171.647 730.39 172.173 729.776 172.56C729.163 172.947 728.43 173.14 727.576 173.14C726.656 173.14 725.83 172.913 725.096 172.46C724.376 171.993 723.803 171.327 723.376 170.46C722.963 169.593 722.756 168.58 722.756 167.42C722.756 166.247 722.963 165.233 723.376 164.38C723.803 163.513 724.376 162.853 725.096 162.4C725.83 161.933 726.656 161.7 727.576 161.7ZM728.676 164.7C727.943 164.7 727.35 164.94 726.896 165.42C726.456 165.9 726.236 166.567 726.236 167.42C726.236 168.273 726.456 168.94 726.896 169.42C727.35 169.9 727.943 170.14 728.676 170.14C729.396 170.14 729.983 169.893 730.436 169.4C730.903 168.907 731.136 168.247 731.136 167.42C731.136 166.58 730.903 165.92 730.436 165.44C729.983 164.947 729.396 164.7 728.676 164.7ZM740.311 163.94C740.738 163.26 741.284 162.72 741.951 162.32C742.631 161.92 743.364 161.72 744.151 161.72V165.38H743.171C742.264 165.38 741.558 165.573 741.051 165.96C740.558 166.347 740.311 167 740.311 167.92V173H736.891V161.84H740.311V163.94ZM751.902 170.06V173H750.362C749.056 173 748.036 172.68 747.302 172.04C746.582 171.387 746.222 170.313 746.222 168.82V164.72H744.722V161.84H746.222V159.1H749.642V161.84H751.882V164.72H749.642V168.88C749.642 169.32 749.729 169.627 749.902 169.8C750.089 169.973 750.396 170.06 750.822 170.06H751.902ZM764.425 167.12C764.425 167.4 764.391 167.707 764.325 168.04H756.585C756.625 168.88 756.838 169.487 757.225 169.86C757.611 170.22 758.105 170.4 758.705 170.4C759.211 170.4 759.631 170.273 759.965 170.02C760.298 169.767 760.518 169.44 760.625 169.04H764.245C764.098 169.827 763.778 170.533 763.285 171.16C762.791 171.773 762.165 172.26 761.405 172.62C760.645 172.967 759.798 173.14 758.865 173.14C757.771 173.14 756.798 172.913 755.945 172.46C755.105 171.993 754.445 171.327 753.965 170.46C753.485 169.593 753.245 168.58 753.245 167.42C753.245 166.247 753.478 165.233 753.945 164.38C754.425 163.513 755.091 162.853 755.945 162.4C756.798 161.933 757.771 161.7 758.865 161.7C759.971 161.7 760.945 161.927 761.785 162.38C762.625 162.833 763.271 163.473 763.725 164.3C764.191 165.113 764.425 166.053 764.425 167.12ZM760.965 166.6C760.978 165.867 760.778 165.32 760.365 164.96C759.965 164.587 759.465 164.4 758.865 164.4C758.238 164.4 757.718 164.587 757.305 164.96C756.891 165.333 756.658 165.88 756.605 166.6H760.965ZM770.447 161.7C771.301 161.7 772.034 161.893 772.647 162.28C773.261 162.667 773.707 163.193 773.987 163.86V158.2H777.407V173H773.987V170.98C773.707 171.647 773.261 172.173 772.647 172.56C772.034 172.947 771.301 173.14 770.447 173.14C769.527 173.14 768.701 172.913 767.967 172.46C767.247 171.993 766.674 171.327 766.247 170.46C765.834 169.593 765.627 168.58 765.627 167.42C765.627 166.247 765.834 165.233 766.247 164.38C766.674 163.513 767.247 162.853 767.967 162.4C768.701 161.933 769.527 161.7 770.447 161.7ZM771.547 164.7C770.814 164.7 770.221 164.94 769.767 165.42C769.327 165.9 769.107 166.567 769.107 167.42C769.107 168.273 769.327 168.94 769.767 169.42C770.221 169.9 770.814 170.14 771.547 170.14C772.267 170.14 772.854 169.893 773.307 169.4C773.774 168.907 774.007 168.247 774.007 167.42C774.007 166.58 773.774 165.92 773.307 165.44C772.854 164.947 772.267 164.7 771.547 164.7Z" fill="white"/>
</svg>
